<svg xmlns="http://www.w3.org/2000/svg" viewBox="0 0 120 120" fill="none">
  <rect width="120" height="120" rx="24" fill="#0a0a0a"/>
  <circle cx="60" cy="48" r="28" fill="#e5e5e5"/>
  <circle cx="48" cy="42" r="3.5" fill="#0a0a0a"/>
  <circle cx="72" cy="42" r="3.5" fill="#0a0a0a"/>
  <path d="M48 56 Q60 66 72 56" stroke="#0a0a0a" stroke-width="2.5" stroke-linecap="round" fill="none"/>
  <rect x="44" y="24" width="6" height="14" rx="3" fill="#0a0a0a" transform="rotate(-15 47 31)"/>
  <rect x="70" y="24" width="6" height="14" rx="3" fill="#0a0a0a" transform="rotate(15 73 31)"/>
  <path d="M36 72 C36 72 40 80 60 80 C80 80 84 72 84 72 L88 100 C88 104 84 108 60 108 C36 108 32 104 32 100 Z" fill="#e5e5e5"/>
</svg>
