<svg xmlns="http://www.w3.org/2000/svg" viewBox="0 0 120 120" fill="none">
  <rect width="120" height="120" rx="26" fill="#1a1a1a"/>
  <circle cx="60" cy="54" r="30" fill="#C4B5FD"/>
  <circle cx="60" cy="57" r="21" fill="#A78BFA"/>
  <!-- Star eyes -->
  <g fill="#FFD700">
    <polygon points="47,46 48.5,42 50,46 54,46.5 51,49 52,53 47,50.5 42,53 43,49 40,46.5"/>
    <polygon points="73,46 74.5,42 76,46 80,46.5 77,49 78,53 73,50.5 68,53 69,49 66,46.5"/>
  </g>
  <!-- Inspired open smile -->
  <path d="M48 62 Q60 72 72 62" fill="#1a1a1a"/>
  <path d="M50 62 Q60 69 70 62" fill="white"/>
  <!-- Tongue -->
  <ellipse cx="60" cy="68" rx="4.5" ry="3" fill="#F472B6"/>
  <!-- Beret -->
  <ellipse cx="60" cy="28" rx="28" ry="10" fill="#7C3AED"/>
  <circle cx="60" cy="20" r="5" fill="#7C3AED"/>
  <path d="M32 28 Q32 40 44 38 Q48 30 60 30 Q72 30 76 38 Q88 40 88 28" fill="#7C3AED"/>
  <!-- Paintbrush -->
  <g transform="rotate(30 92 78)">
    <rect x="88" y="56" width="4" height="30" rx="1.5" fill="#D4A017"/>
    <rect x="87" y="52" width="6" height="8" rx="1" fill="#8B6914"/>
    <path d="M87 52 Q90 46 93 52" fill="#FF6B6B"/>
    <circle cx="88" cy="48" r="2" fill="#FF6B6B" opacity="0.7"/>
    <circle cx="92" cy="49" r="1.5" fill="#60A5FA" opacity="0.7"/>
  </g>
  <!-- Paint splashes -->
  <circle cx="24" cy="90" r="5" fill="#FF6B6B" opacity="0.6"/>
  <circle cx="20" cy="85" r="3" fill="#60A5FA" opacity="0.5"/>
  <circle cx="28" cy="96" r="2.5" fill="#34D399" opacity="0.5"/>
  <!-- Sparkles -->
  <g fill="#FFD700" opacity="0.8">
    <rect x="17" y="22" width="1.5" height="10" rx="0.75"/>
    <rect x="13" y="26" width="10" height="1.5" rx="0.75"/>
  </g>
  <g fill="#FFD700" opacity="0.6">
    <rect x="99" y="32" width="1.2" height="8" rx="0.6"/>
    <rect x="96" y="35" width="8" height="1.2" rx="0.6"/>
  </g>
  <!-- Blush -->
  <circle cx="42" cy="60" r="4" fill="#F9A8D4" opacity="0.4"/>
  <circle cx="78" cy="60" r="4" fill="#F9A8D4" opacity="0.4"/>
  <!-- Lightbulb above -->
  <g transform="translate(88, 12)">
    <ellipse cx="0" cy="0" rx="5" ry="6" fill="#FDE68A" opacity="0.8"/>
    <rect x="-2" y="5" width="4" height="3" rx="1" fill="#F59E0B" opacity="0.6"/>
    <line x1="0" y1="-9" x2="0" y2="-12" stroke="#FDE68A" stroke-width="1.2" stroke-linecap="round" opacity="0.6"/>
    <line x1="5" y1="-7" x2="7" y2="-10" stroke="#FDE68A" stroke-width="1.2" stroke-linecap="round" opacity="0.5"/>
    <line x1="-5" y1="-7" x2="-7" y2="-10" stroke="#FDE68A" stroke-width="1.2" stroke-linecap="round" opacity="0.5"/>
  </g>
</svg>
